<svg xmlns="http://www.w3.org/2000/svg" width="512" height="512" viewBox="0 0 512 512">
  <defs>
    <linearGradient id="g" x1="0" y1="0" x2="1" y2="1">
      <stop offset="0" stop-color="#8b5cf6"/>
      <stop offset="1" stop-color="#d946ef"/>
    </linearGradient>
    <radialGradient id="r" cx="25%" cy="15%" r="90%">
      <stop offset="0" stop-color="rgba(255,255,255,0.35)"/>
      <stop offset="1" stop-color="rgba(255,255,255,0)"/>
    </radialGradient>
  </defs>

  <rect x="0" y="0" width="512" height="512" rx="84" fill="#0b0b12"/>
  <rect x="24" y="24" width="464" height="464" rx="72" fill="url(#g)" opacity="0.22"/>
  <rect x="24" y="24" width="464" height="464" rx="72" fill="url(#r)"/>

  <circle cx="256" cy="256" r="150" fill="rgba(0,0,0,0.35)"/>
  <circle cx="256" cy="256" r="116" fill="rgba(0,0,0,0.35)"/>
  <circle cx="256" cy="256" r="10" fill="rgba(255,255,255,0.75)"/>

  <!-- Simple radio tower + note -->
  <path d="M256 168c-34 0-62 28-62 62v112c0 18 14 32 32 32h60c18 0 32-14 32-32V230c0-34-28-62-62-62z" fill="rgba(0,0,0,0.25)"/>
  <path d="M260 192c18 2 34 18 34 38v116c0 6-5 12-12 12h-52c-7 0-12-6-12-12V230c0-20 16-36 34-38z" fill="rgba(255,255,255,0.18)"/>
  <path d="M320 200c22 18 36 46 36 78s-14 60-36 78" fill="none" stroke="rgba(255,255,255,0.35)" stroke-width="10" stroke-linecap="round"/>
  <path d="M192 200c-22 18-36 46-36 78s14 60 36 78" fill="none" stroke="rgba(255,255,255,0.35)" stroke-width="10" stroke-linecap="round"/>
</svg>

